<svg viewBox="0 0 1024 1024" xmlns="http://www.w3.org/2000/svg" width="200" height="200"><path d="M546 635c-4 0-6 0-9-2L159 421c-5-4-9-10-9-17s4-13 9-17l378-201c5-4 13-4 17 0l377 203c6 4 10 9 10 17s-4 13-10 17L556 631c-2 2-6 4-10 4zM209 406l337 188 338-188-338-182-337 182z"/><path d="M546 787c-4 0-6 0-9-2L159 575c-9-6-11-17-7-27 5-9 17-13 26-8l368 205 368-205c9-5 21-1 27 8 5 10 1 21-8 27L556 785c-2 2-6 2-10 2z"/><path d="M546 941c-4 0-6 0-9-2L159 728c-9-6-11-17-7-26 5-10 17-14 26-8l368 205 368-205c9-6 21-2 27 8 5 9 1 20-8 26L556 939c-2 2-6 2-10 2z"/></svg>