<svg class="icon" viewBox="0 0 1024 1024" xmlns="http://www.w3.org/2000/svg" width="60" height="60">
    <path d="M819 550a26 26 0 0 1 26 26v179a26 26 0 0 1-26 26H218a26 26 0 0 1-26-26V576a26 26 0 0 1 26-26h231a77 77 0 0 0 152 0h218z" fill="#F2F3F8" />
    <path d="M732 400c16 0 31 10 37 25v1l78 129c5 6 7 13 7 21v179a35 35 0 0 1-35 35H218a35 35 0 0 1-36-35V576c0-9 4-17 9-23l77-127v-1a40 40 0 0 1 35-25h429zM441 560H218c-5 0-9 2-12 5v1h-1c-2 2-3 5-3 8v181c0 9 7 16 16 16h601c9 0 16-7 16-16V576c0-4-1-7-3-10h-1a16 16 0 0 0-12-6H608v1a86 86 0 0 1-80 63h-3a86 86 0 0 1-83-63l-1-1zm291-141H305c-8 0-16 5-19 13l-1 1v3l-64 105h236l2 8a67 67 0 0 0 132 0l1-8h224l-64-105-1-3a21 21 0 0 0-18-14h-1zm-37-210a10 10 0 0 1 5 11v1l-38 90a10 10 0 0 1-18-6v-2l38-89a10 10 0 0 1 13-5zm-353 0a10 10 0 0 1 12 5l39 89v2a10 10 0 0 1-18 6l-38-90-1-1a10 10 0 0 1 6-11zm176-1a10 10 0 0 1 10 10v91a10 10 0 0 1-19-2v-91a10 10 0 0 1 9-8z" fill="#8B94A6" />
</svg>