<svg class="icon" style="width: 1em;height: 1em;vertical-align: middle;fill: #0269c8;overflow: hidden;" viewBox="0 0 1024 1024" xmlns="http://www.w3.org/2000/svg" version="1.1">
    <path d="M919.3 285.73L738.27 104.7c-18.67-18.69-49.11-18.72-67.88 0L444.12 330.98c-18.72 18.72-18.72 49.15 0 67.87l-0.01 0.01 33.94 33.94c6.25 6.25 16.38 6.25 22.63 0l22.63-22.63c6.25-6.25 6.25-16.38 0-22.63l-22.62-22.62 203.63-203.66 158.41 158.41L659.07 523.3l-22.62-22.62c-6.25-6.25-16.38-6.25-22.63 0l-22.63 22.63c-6.25 6.25-6.25 16.38 0 22.63l33.94 33.94 0.01-0.01c9.36 9.36 21.64 14.03 33.94 14.03s24.58-4.67 33.94-14.03L919.3 353.61c18.72-18.72 18.72-49.16 0-67.88zM330.98 693.02c6.25 6.25 14.44 9.38 22.62 9.38s16.38-3.12 22.62-9.38L693 376.24c12.5-12.5 12.5-32.75 0-45.25s-32.75-12.5-45.25 0L330.98 647.77c-12.5 12.5-12.5 32.75 0 45.25zM579.88 625.14l-33.94-33.94c-6.25-6.25-16.38-6.25-22.63 0l-22.63 22.63c-6.25 6.25-6.25 16.38 0 22.63l22.62 22.62-203.63 203.65-158.4-158.4L364.93 500.7l22.62 22.62c6.25 6.25 16.38 6.25 22.63 0l22.63-22.63c6.25-6.25 6.25-16.38 0-22.63l-33.94-33.94-0.01 0.01c-18.72-18.72-49.15-18.72-67.87 0L104.7 670.39c-9.08 9.08-14.08 21.14-14.06 33.97s5.02 24.88 14.06 33.91l181 181c9.06 9.08 21.11 14.08 33.94 14.09h0.03c12.81 0 24.88-5 33.94-14.06l226.27-226.28c18.71-18.72 18.72-49.15 0-67.88z"></path>
</svg>